<?xml version="1.0" encoding="UTF-8" standalone="no"?>
<!DOCTYPE svg PUBLIC "-//W3C//DTD SVG 1.1//EN"
 "http://www.w3.org/Graphics/SVG/1.1/DTD/svg11.dtd">
<!-- Generated by graphviz version 2.40.1 (20161225.0304)
 -->
<!-- Title: %3 Pages: 1 -->
<svg width="791pt" height="689pt"
 viewBox="0.00 0.00 791.00 689.00" xmlns="http://www.w3.org/2000/svg" xmlns:xlink="http://www.w3.org/1999/xlink">
<g id="graph0" class="graph" transform="scale(1 1) rotate(0) translate(4 685)">
<title>%3</title>
<polygon fill="#ffffff" stroke="transparent" points="-4,4 -4,-685 787,-685 787,4 -4,4"/>
<!-- (below main) -->
<g id="node1" class="node">
<title>(below main)</title>
<polygon fill="#ff0100" stroke="#ff0100" points="408,-475 337,-475 337,-412 408,-412 408,-475"/>
<text text-anchor="middle" x="372.5" y="-463" font-family="Arial" font-size="10.00" fill="#ffffff">libc&#45;2.27.so</text>
<text text-anchor="middle" x="372.5" y="-452" font-family="Arial" font-size="10.00" fill="#ffffff">(below main)</text>
<text text-anchor="middle" x="372.5" y="-441" font-family="Arial" font-size="10.00" fill="#ffffff">99.89%</text>
<text text-anchor="middle" x="372.5" y="-430" font-family="Arial" font-size="10.00" fill="#ffffff">(0.00%)</text>
<text text-anchor="middle" x="372.5" y="-419" font-family="Arial" font-size="10.00" fill="#ffffff">1×</text>
</g>
<!-- main -->
<g id="node2" class="node">
<title>main</title>
<polygon fill="#ff0100" stroke="#ff0100" points="397.5,-372 347.5,-372 347.5,-309 397.5,-309 397.5,-372"/>
<text text-anchor="middle" x="372.5" y="-360" font-family="Arial" font-size="10.00" fill="#ffffff">cpu.bin</text>
<text text-anchor="middle" x="372.5" y="-349" font-family="Arial" font-size="10.00" fill="#ffffff">main</text>
<text text-anchor="middle" x="372.5" y="-338" font-family="Arial" font-size="10.00" fill="#ffffff">99.88%</text>
<text text-anchor="middle" x="372.5" y="-327" font-family="Arial" font-size="10.00" fill="#ffffff">(0.00%)</text>
<text text-anchor="middle" x="372.5" y="-316" font-family="Arial" font-size="10.00" fill="#ffffff">1×</text>
</g>
<!-- (below main)&#45;&gt;main -->
<g id="edge1" class="edge">
<title>(below main)&#45;&gt;main</title>
<path fill="none" stroke="#ff0100" stroke-width="4" d="M372.5,-411.7562C372.5,-402.5536 372.5,-392.3591 372.5,-382.6267"/>
<polygon fill="#ff0100" stroke="#ff0100" stroke-width="4" points="376.0001,-382.3163 372.5,-372.3163 369.0001,-382.3164 376.0001,-382.3163"/>
<text text-anchor="middle" x="389.5" y="-395" font-family="Arial" font-size="10.00" fill="#ff0100">99.88%</text>
<text text-anchor="middle" x="389.5" y="-384" font-family="Arial" font-size="10.00" fill="#ff0100">1×</text>
</g>
<!-- breadSort(std::vector&lt;int, std::allocator&lt;int&gt; &gt;&amp;, int) -->
<g id="node7" class="node">
<title>breadSort(std::vector&lt;int, std::allocator&lt;int&gt; &gt;&amp;, int)</title>
<polygon fill="#fd0f00" stroke="#fd0f00" points="245,-269 0,-269 0,-206 245,-206 245,-269"/>
<text text-anchor="middle" x="122.5" y="-257" font-family="Arial" font-size="10.00" fill="#ffffff">cpu.bin</text>
<text text-anchor="middle" x="122.5" y="-246" font-family="Arial" font-size="10.00" fill="#ffffff">breadSort(std::vector&lt;int, std::allocator&lt;int&gt; &gt;&amp;, int)</text>
<text text-anchor="middle" x="122.5" y="-235" font-family="Arial" font-size="10.00" fill="#ffffff">98.58%</text>
<text text-anchor="middle" x="122.5" y="-224" font-family="Arial" font-size="10.00" fill="#ffffff">(77.05%)</text>
<text text-anchor="middle" x="122.5" y="-213" font-family="Arial" font-size="10.00" fill="#ffffff">1×</text>
</g>
<!-- main&#45;&gt;breadSort(std::vector&lt;int, std::allocator&lt;int&gt; &gt;&amp;, int) -->
<g id="edge6" class="edge">
<title>main&#45;&gt;breadSort(std::vector&lt;int, std::allocator&lt;int&gt; &gt;&amp;, int)</title>
<path fill="none" stroke="#fd0f00" stroke-width="3.94" d="M347.1529,-330.057C314.791,-316.7239 257.1413,-292.9722 208.3459,-272.8685"/>
<polygon fill="#fd0f00" stroke="#fd0f00" stroke-width="3.94" points="209.5044,-269.5983 199.0309,-269.0307 206.8645,-276.0058 209.5044,-269.5983"/>
<text text-anchor="middle" x="287.5" y="-292" font-family="Arial" font-size="10.00" fill="#fd0f00">98.58%</text>
<text text-anchor="middle" x="287.5" y="-281" font-family="Arial" font-size="10.00" fill="#fd0f00">1×</text>
</g>
<!-- showVector(std::vector&lt;int, std::allocator&lt;int&gt; &gt;&amp;) -->
<g id="node8" class="node">
<title>showVector(std::vector&lt;int, std::allocator&lt;int&gt; &gt;&amp;)</title>
<polygon fill="#0d1074" stroke="#0d1074" points="490.5,-269 254.5,-269 254.5,-206 490.5,-206 490.5,-269"/>
<text text-anchor="middle" x="372.5" y="-257" font-family="Arial" font-size="10.00" fill="#ffffff">cpu.bin</text>
<text text-anchor="middle" x="372.5" y="-246" font-family="Arial" font-size="10.00" fill="#ffffff">showVector(std::vector&lt;int, std::allocator&lt;int&gt; &gt;&amp;)</text>
<text text-anchor="middle" x="372.5" y="-235" font-family="Arial" font-size="10.00" fill="#ffffff">0.74%</text>
<text text-anchor="middle" x="372.5" y="-224" font-family="Arial" font-size="10.00" fill="#ffffff">(0.01%)</text>
<text text-anchor="middle" x="372.5" y="-213" font-family="Arial" font-size="10.00" fill="#ffffff">2×</text>
</g>
<!-- main&#45;&gt;showVector(std::vector&lt;int, std::allocator&lt;int&gt; &gt;&amp;) -->
<g id="edge7" class="edge">
<title>main&#45;&gt;showVector(std::vector&lt;int, std::allocator&lt;int&gt; &gt;&amp;)</title>
<path fill="none" stroke="#0d1074" stroke-width=".5" d="M372.5,-308.7562C372.5,-297.3998 372.5,-284.5328 372.5,-272.888"/>
<polygon fill="#0d1074" stroke="#0d1074" stroke-width=".5" points="373.7251,-272.8163 372.5,-269.3163 371.2751,-272.8164 373.7251,-272.8163"/>
<text text-anchor="middle" x="386.5" y="-292" font-family="Arial" font-size="10.00" fill="#0d1074">0.74%</text>
<text text-anchor="middle" x="386.5" y="-281" font-family="Arial" font-size="10.00" fill="#0d1074">2×</text>
</g>
<!-- vectorData(std::vector&lt;int, std::allocator&lt;int&gt; &gt;&amp;, int, int, int) -->
<g id="node9" class="node">
<title>vectorData(std::vector&lt;int, std::allocator&lt;int&gt; &gt;&amp;, int, int, int)</title>
<polygon fill="#0d0f73" stroke="#0d0f73" points="783,-269 500,-269 500,-206 783,-206 783,-269"/>
<text text-anchor="middle" x="641.5" y="-257" font-family="Arial" font-size="10.00" fill="#ffffff">cpu.bin</text>
<text text-anchor="middle" x="641.5" y="-246" font-family="Arial" font-size="10.00" fill="#ffffff">vectorData(std::vector&lt;int, std::allocator&lt;int&gt; &gt;&amp;, int, int, int)</text>
<text text-anchor="middle" x="641.5" y="-235" font-family="Arial" font-size="10.00" fill="#ffffff">0.56%</text>
<text text-anchor="middle" x="641.5" y="-224" font-family="Arial" font-size="10.00" fill="#ffffff">(0.01%)</text>
<text text-anchor="middle" x="641.5" y="-213" font-family="Arial" font-size="10.00" fill="#ffffff">1×</text>
</g>
<!-- main&#45;&gt;vectorData(std::vector&lt;int, std::allocator&lt;int&gt; &gt;&amp;, int, int, int) -->
<g id="edge8" class="edge">
<title>main&#45;&gt;vectorData(std::vector&lt;int, std::allocator&lt;int&gt; &gt;&amp;, int, int, int)</title>
<path fill="none" stroke="#0d0f73" stroke-width=".5" d="M397.8069,-330.81C433.5769,-317.1137 500.6673,-291.4248 555.4106,-270.4636"/>
<polygon fill="#0d0f73" stroke="#0d0f73" stroke-width=".5" points="556.1676,-271.4855 558.9981,-269.0899 555.2915,-269.1975 556.1676,-271.4855"/>
<text text-anchor="middle" x="544.5" y="-292" font-family="Arial" font-size="10.00" fill="#0d0f73">0.56%</text>
<text text-anchor="middle" x="544.5" y="-281" font-family="Arial" font-size="10.00" fill="#0d0f73">1×</text>
</g>
<!-- 0x0000000000001090 -->
<g id="node3" class="node">
<title>0x0000000000001090</title>
<polygon fill="#ff0000" stroke="#ff0000" points="428,-681 317,-681 317,-618 428,-618 428,-681"/>
<text text-anchor="middle" x="372.5" y="-669" font-family="Arial" font-size="10.00" fill="#ffffff">ld&#45;2.27.so</text>
<text text-anchor="middle" x="372.5" y="-658" font-family="Arial" font-size="10.00" fill="#ffffff">0x0000000000001090</text>
<text text-anchor="middle" x="372.5" y="-647" font-family="Arial" font-size="10.00" fill="#ffffff">99.99%</text>
<text text-anchor="middle" x="372.5" y="-636" font-family="Arial" font-size="10.00" fill="#ffffff">(0.00%)</text>
<text text-anchor="middle" x="372.5" y="-625" font-family="Arial" font-size="10.00" fill="#ffffff">0×</text>
</g>
<!-- _start -->
<g id="node4" class="node">
<title>_start</title>
<polygon fill="#ff0100" stroke="#ff0100" points="397.5,-578 347.5,-578 347.5,-515 397.5,-515 397.5,-578"/>
<text text-anchor="middle" x="372.5" y="-566" font-family="Arial" font-size="10.00" fill="#ffffff">cpu.bin</text>
<text text-anchor="middle" x="372.5" y="-555" font-family="Arial" font-size="10.00" fill="#ffffff">_start</text>
<text text-anchor="middle" x="372.5" y="-544" font-family="Arial" font-size="10.00" fill="#ffffff">99.89%</text>
<text text-anchor="middle" x="372.5" y="-533" font-family="Arial" font-size="10.00" fill="#ffffff">(0.00%)</text>
<text text-anchor="middle" x="372.5" y="-522" font-family="Arial" font-size="10.00" fill="#ffffff">1×</text>
</g>
<!-- 0x0000000000001090&#45;&gt;_start -->
<g id="edge2" class="edge">
<title>0x0000000000001090&#45;&gt;_start</title>
<path fill="none" stroke="#ff0100" stroke-width="4" d="M372.5,-617.7562C372.5,-608.5536 372.5,-598.3591 372.5,-588.6267"/>
<polygon fill="#ff0100" stroke="#ff0100" stroke-width="4" points="376.0001,-588.3163 372.5,-578.3163 369.0001,-588.3164 376.0001,-588.3163"/>
<text text-anchor="middle" x="389.5" y="-601" font-family="Arial" font-size="10.00" fill="#ff0100">99.89%</text>
<text text-anchor="middle" x="389.5" y="-590" font-family="Arial" font-size="10.00" fill="#ff0100">1×</text>
</g>
<!-- _start&#45;&gt;(below main) -->
<g id="edge4" class="edge">
<title>_start&#45;&gt;(below main)</title>
<path fill="none" stroke="#ff0100" stroke-width="4" d="M372.5,-514.7562C372.5,-505.5536 372.5,-495.3591 372.5,-485.6267"/>
<polygon fill="#ff0100" stroke="#ff0100" stroke-width="4" points="376.0001,-485.3163 372.5,-475.3163 369.0001,-485.3164 376.0001,-485.3163"/>
<text text-anchor="middle" x="389.5" y="-498" font-family="Arial" font-size="10.00" fill="#ff0100">99.89%</text>
<text text-anchor="middle" x="389.5" y="-487" font-family="Arial" font-size="10.00" fill="#ff0100">1×</text>
</g>
<!-- __memset_avx2_erms -->
<g id="node5" class="node">
<title>__memset_avx2_erms</title>
<polygon fill="#0c7d8f" stroke="#0c7d8f" points="180.5,-63 64.5,-63 64.5,0 180.5,0 180.5,-63"/>
<text text-anchor="middle" x="122.5" y="-51" font-family="Arial" font-size="10.00" fill="#ffffff">libc&#45;2.27.so</text>
<text text-anchor="middle" x="122.5" y="-40" font-family="Arial" font-size="10.00" fill="#ffffff">__memset_avx2_erms</text>
<text text-anchor="middle" x="122.5" y="-29" font-family="Arial" font-size="10.00" fill="#ffffff">21.53%</text>
<text text-anchor="middle" x="122.5" y="-18" font-family="Arial" font-size="10.00" fill="#ffffff">(21.53%)</text>
<text text-anchor="middle" x="122.5" y="-7" font-family="Arial" font-size="10.00" fill="#ffffff">3×</text>
</g>
<!-- __memset_avx2_unaligned_erms -->
<g id="node6" class="node">
<title>__memset_avx2_unaligned_erms</title>
<polygon fill="#0c7d8f" stroke="#0c7d8f" points="203.5,-166 41.5,-166 41.5,-103 203.5,-103 203.5,-166"/>
<text text-anchor="middle" x="122.5" y="-154" font-family="Arial" font-size="10.00" fill="#ffffff">libc&#45;2.27.so</text>
<text text-anchor="middle" x="122.5" y="-143" font-family="Arial" font-size="10.00" fill="#ffffff">__memset_avx2_unaligned_erms</text>
<text text-anchor="middle" x="122.5" y="-132" font-family="Arial" font-size="10.00" fill="#ffffff">21.53%</text>
<text text-anchor="middle" x="122.5" y="-121" font-family="Arial" font-size="10.00" fill="#ffffff">(0.00%)</text>
<text text-anchor="middle" x="122.5" y="-110" font-family="Arial" font-size="10.00" fill="#ffffff">3×</text>
</g>
<!-- __memset_avx2_unaligned_erms&#45;&gt;__memset_avx2_erms -->
<g id="edge3" class="edge">
<title>__memset_avx2_unaligned_erms&#45;&gt;__memset_avx2_erms</title>
<path fill="none" stroke="#0c7d8f" stroke-width=".86" d="M122.5,-102.7562C122.5,-91.7914 122.5,-79.4184 122.5,-68.0969"/>
<polygon fill="#0c7d8f" stroke="#0c7d8f" stroke-width=".86" points="124.1101,-67.9163 122.5,-63.3163 120.8901,-67.9164 124.1101,-67.9163"/>
<text text-anchor="middle" x="139.5" y="-86" font-family="Arial" font-size="10.00" fill="#0c7d8f">21.53%</text>
<text text-anchor="middle" x="139.5" y="-75" font-family="Arial" font-size="10.00" fill="#0c7d8f">3×</text>
</g>
<!-- breadSort(std::vector&lt;int, std::allocator&lt;int&gt; &gt;&amp;, int)&#45;&gt;__memset_avx2_unaligned_erms -->
<g id="edge5" class="edge">
<title>breadSort(std::vector&lt;int, std::allocator&lt;int&gt; &gt;&amp;, int)&#45;&gt;__memset_avx2_unaligned_erms</title>
<path fill="none" stroke="#0c7d8f" stroke-width=".86" d="M122.5,-205.7562C122.5,-194.7914 122.5,-182.4184 122.5,-171.0969"/>
<polygon fill="#0c7d8f" stroke="#0c7d8f" stroke-width=".86" points="124.1101,-170.9163 122.5,-166.3163 120.8901,-170.9164 124.1101,-170.9163"/>
<text text-anchor="middle" x="139.5" y="-189" font-family="Arial" font-size="10.00" fill="#0c7d8f">21.53%</text>
<text text-anchor="middle" x="139.5" y="-178" font-family="Arial" font-size="10.00" fill="#0c7d8f">3×</text>
</g>
<!-- randomNumber(int, int) -->
<g id="node10" class="node">
<title>randomNumber(int, int)</title>
<polygon fill="#0d0f73" stroke="#0d0f73" points="699.5,-166 583.5,-166 583.5,-103 699.5,-103 699.5,-166"/>
<text text-anchor="middle" x="641.5" y="-154" font-family="Arial" font-size="10.00" fill="#ffffff">cpu.bin</text>
<text text-anchor="middle" x="641.5" y="-143" font-family="Arial" font-size="10.00" fill="#ffffff">randomNumber(int, int)</text>
<text text-anchor="middle" x="641.5" y="-132" font-family="Arial" font-size="10.00" fill="#ffffff">0.55%</text>
<text text-anchor="middle" x="641.5" y="-121" font-family="Arial" font-size="10.00" fill="#ffffff">(0.05%)</text>
<text text-anchor="middle" x="641.5" y="-110" font-family="Arial" font-size="10.00" fill="#ffffff">10000×</text>
</g>
<!-- vectorData(std::vector&lt;int, std::allocator&lt;int&gt; &gt;&amp;, int, int, int)&#45;&gt;randomNumber(int, int) -->
<g id="edge9" class="edge">
<title>vectorData(std::vector&lt;int, std::allocator&lt;int&gt; &gt;&amp;, int, int, int)&#45;&gt;randomNumber(int, int)</title>
<path fill="none" stroke="#0d0f73" stroke-width=".5" d="M641.5,-205.7562C641.5,-194.3998 641.5,-181.5328 641.5,-169.888"/>
<polygon fill="#0d0f73" stroke="#0d0f73" stroke-width=".5" points="642.7251,-169.8163 641.5,-166.3163 640.2751,-169.8164 642.7251,-169.8163"/>
<text text-anchor="middle" x="658" y="-189" font-family="Arial" font-size="10.00" fill="#0d0f73">0.55%</text>
<text text-anchor="middle" x="658" y="-178" font-family="Arial" font-size="10.00" fill="#0d0f73">10000×</text>
</g>
</g>
</svg>
